PathFileType	4	(X/Y/Z)	s06c0102.trc
DataRate	CameraRate	NumFrames	NumMarkers	Units	OrigDataRate	OrigDataStartFrame	OrigNumFrames
200	200	4	48	mm	200	1250	2000
Frame#	Time	racr			lacr			c7			jug			rlel			rdr			llel			ldr			s2			lic			ric			lasi			rasi			rpsi			lpsi			rgt			lgt			rth1			rth2			rth3			rth4			rlfc			rmfc			rsh1			rsh2			rsh3			rsh4			rlmal			rcal			rtoe			rmt5			lth1			lth2			lth4			lth3			llfc			lmfc			llmal			lcal			lmt5			lsh1			lsh2			lsh3			lsh4			ltoe			SBIKE			LBIKE			RBIKE			
		X1	Y1	Z1	X2	Y2	Z2	X3	Y3	Z3	X4	Y4	Z4	X5	Y5	Z5	X6	Y6	Z6	X7	Y7	Z7	X8	Y8	Z8	X9	Y9	Z9	X10	Y10	Z10	X11	Y11	Z11	X12	Y12	Z12	X13	Y13	Z13	X14	Y14	Z14	X15	Y15	Z15	X16	Y16	Z16	X17	Y17	Z17	X18	Y18	Z18	X19	Y19	Z19	X20	Y20	Z20	X21	Y21	Z21	X22	Y22	Z22	X23	Y23	Z23	X24	Y24	Z24	X25	Y25	Z25	X26	Y26	Z26	X27	Y27	Z27	X28	Y28	Z28	X29	Y29	Z29	X30	Y30	Z30	X31	Y31	Z31	X32	Y32	Z32	X33	Y33	Z33	X34	Y34	Z34	X35	Y35	Z35	X36	Y36	Z36	X37	Y37	Z37	X38	Y38	Z38	X39	Y39	Z39	X40	Y40	Z40	X41	Y41	Z41	X42	Y42	Z42	X43	Y43	Z43	X44	Y44	Z44	X45	Y45	Z45	X46	Y46	Z46	X47	Y47	Z47	X48	Y48	Z48	
1250	6.2500	498.125104	1288.216614	-75.598325	529.832673	1265.935086	-362.604855	508.869434	1349.025364	-223.637126	472.866104	1184.439815	-209.439881	520.204228	1048.960444	37.343891	714.137015	928.034289	-50.631296	501.085507	1022.005052	-478.757252	706.966792	926.333248	-409.129628	-33.480475	1147.656449	-236.269515	133.521283	1121.659135	-399.600634	95.354174	1145.446545	-70.337688	156.431037	1074.074121	-361.091516	128.854509	1102.517291	-99.788952	-5.566474	1192.739266	-217.171957	-5.827897	1181.822035	-274.879831	84.302570	1088.956182	-30.971404	105.004500	1030.732376	-424.556489	197.783560	1042.019323	-23.527315	287.818296	1027.875306	-26.971659	355.291880	974.220651	-22.792407	298.600454	1056.356150	-50.132947	423.210194	892.071370	-43.842077	415.147773	866.712094	-156.685554	348.353809	793.220929	-24.995740	302.437201	723.380379	-47.124954	226.469229	678.914711	-51.198400	320.753059	709.507298	-80.911485	156.954996	627.382373	-60.329883	92.817161	642.615243	-111.154812	278.474907	437.903434	-98.856891	193.136375	493.015385	-34.453481	138.297071	905.393604	-439.142126	194.114089	838.725430	-431.735389	226.571757	854.221770	-421.788437	208.865905	750.926798	-422.982937	233.200668	634.357506	-402.423664	236.671837	618.436834	-285.749484	187.411134	268.124724	-378.567629	118.925476	263.165438	-330.194975	285.337832	157.782837	-404.799815	219.264810	525.625419	-421.048350	232.131117	442.361118	-399.967676	201.586594	359.180793	-392.354730	260.758664	444.752905	-373.103810	369.312070	134.111364	-347.289664	-202.888214	867.277470	-215.588831	-48.878944	80.229530	-414.770454	-48.817317	80.313114	-17.256809	
1251	6.2550	497.896343	1288.042728	-75.171906	530.451016	1265.545664	-361.843518	509.257459	1348.460947	-223.200858	472.906796	1183.934992	-208.721361	519.328457	1048.260406	37.105907	713.512318	928.602503	-50.818199	501.453102	1022.437028	-479.510970	707.386003	925.941147	-409.626860	-33.170460	1148.210268	-237.555608	134.830568	1121.432098	-400.197039	94.948521	1146.914871	-71.323019	157.053197	1073.167224	-361.909419	128.135253	1103.255831	-100.219980	-5.290293	1193.500149	-218.836331	-5.335360	1182.294644	-276.144008	84.183190	1092.565043	-32.029801	104.947661	1030.626596	-425.428384	198.407223	1047.302849	-22.972156	287.709625	1033.698546	-28.243775	356.027772	981.259022	-22.699129	298.165617	1062.164983	-51.812415	425.277123	899.642414	-44.827877	417.340298	874.040877	-158.257840	352.816848	799.807792	-26.031322	307.977200	729.080144	-47.773978	232.776168	683.456947	-51.440067	326.506743	715.199343	-81.595353	163.926542	629.831737	-60.352944	99.311332	643.673729	-111.057972	289.408703	443.093695	-99.189298	203.048504	496.406933	-34.586308	136.601453	904.698942	-440.339995	191.681444	837.332042	-433.549580	224.328807	852.344605	-423.680376	205.340004	749.387806	-425.678497	228.940476	632.633041	-403.578839	233.609076	616.717979	-286.650850	178.839655	266.883090	-378.633981	110.579869	262.902295	-330.114410	275.292820	154.318402	-404.251661	214.277255	523.904231	-422.052794	226.081074	440.563688	-400.473867	194.573754	357.877814	-392.726809	254.721752	442.798018	-373.850245	358.944904	129.793492	-347.307271	-202.913331	867.310082	-215.586870	-48.884985	80.240351	-414.771725	-48.854715	80.421562	-17.260389	
1252	6.2600	497.714082	1287.573252	-74.865972	531.075481	1264.807598	-361.146885	509.752186	1347.805556	-222.882493	472.860138	1183.365402	-208.327992	517.793025	1047.760053	37.196297	712.960809	928.970253	-50.804112	501.870219	1022.623968	-480.205238	707.814581	925.610968	-409.942659	-32.990727	1148.840897	-238.800734	136.015824	1121.060394	-400.731256	93.486419	1147.664289	-73.584136	157.464995	1072.108469	-362.803814	126.262922	1103.313438	-102.065284	-4.934425	1193.993239	-220.395740	-4.975604	1182.592581	-277.254376	84.411986	1095.600424	-33.291107	104.777564	1030.459164	-426.275558	198.035376	1051.454505	-24.379401	287.543572	1039.034839	-29.656801	356.477823	987.689050	-23.045197	297.615062	1067.216568	-53.483973	427.625895	906.895297	-46.479939	419.294412	880.932478	-159.472618	357.181587	805.605577	-27.208440	313.471182	733.584652	-48.983220	239.205089	687.104625	-51.551071	332.227389	720.243844	-82.205254	170.962755	631.918588	-60.194177	106.131696	643.761956	-111.722513	300.509526	447.759940	-99.473813	212.973531	499.052463	-34.781097	135.068272	903.961444	-441.485745	189.556955	835.997893	-435.366540	222.472253	850.705893	-425.471636	202.337395	747.967547	-427.831465	225.284282	631.017510	-404.480979	231.201626	615.277000	-287.274099	169.891645	266.020741	-378.530489	101.792972	262.729027	-330.110120	264.933772	151.968663	-404.211150	209.714323	522.370340	-422.817710	220.109323	439.028805	-400.842922	187.264732	356.797074	-392.926191	248.818430	440.809243	-374.340571	348.306318	126.452580	-347.172123	-202.947230	867.332498	-215.629638	-48.880568	80.253590	-414.774716	-48.856966	80.420829	-17.260499	
1253	6.2650	497.592165	1287.040327	-74.468179	531.779439	1263.923451	-360.421106	510.331784	1347.033937	-222.514936	472.862088	1182.694804	-207.826138	516.541332	1046.991159	37.186471	712.450991	929.081929	-50.481631	502.378653	1022.561826	-480.829377	708.116701	925.360638	-410.104246	-33.030459	1149.280840	-239.614642	136.966450	1120.520189	-401.219177	93.451512	1148.530939	-74.301600	157.774926	1070.992501	-363.630759	125.899742	1103.581411	-102.393067	-4.820705	1194.460546	-221.716315	-4.635763	1182.864263	-278.314982	84.501639	1098.291089	-34.487628	104.524248	1030.182322	-427.050000	197.337989	1054.868340	-25.942200	287.414075	1043.646611	-31.060557	356.322937	992.936025	-24.066330	296.971796	1071.673638	-55.095228	429.377622	913.586723	-47.794327	420.999007	886.773540	-161.024654	361.373565	810.613734	-28.603480	318.913423	737.705152	-49.967224	245.725125	689.760134	-51.971627	337.778558	724.454887	-83.307248	177.901879	632.793151	-60.462222	112.401688	642.971236	-111.615406	311.722300	451.829226	-99.768421	223.084148	501.128895	-34.871749	133.731605	903.207146	-442.544216	187.745047	834.761004	-437.135785	220.845139	849.284712	-427.319953	199.918219	746.549828	-429.757900	222.448846	629.642029	-405.173449	229.257224	613.946660	-287.765627	160.661827	265.537646	-378.333522	92.464044	262.883479	-329.931780	254.416007	150.361017	-404.072292	205.594440	521.120529	-423.351270	214.213595	437.690084	-400.999344	179.735418	356.134220	-392.965620	242.994437	438.865985	-374.562063	337.537472	123.937492	-347.133620	-202.942931	867.352162	-215.704898	-48.875947	80.255707	-414.789410	-48.833229	80.478970	-17.283009	
